<?xml version="1.0" encoding="UTF-8" standalone="no"?>
<!DOCTYPE svg PUBLIC "-//W3C//DTD SVG 1.1//EN" "http://www.w3.org/Graphics/SVG/1.1/DTD/svg11.dtd">
<svg xmlns="http://www.w3.org/2000/svg" version="1.1" viewBox="0.00 0.00 1200.00 1200.00">
<path fill="#ffffff" d="
  M 818.93 402.79
  C 840.78 447.90 849.21 499.03 840.79 548.63
  Q 835.91 577.40 824.41 604.31
  Q 821.65 610.76 818.90 617.22
  Q 818.68 617.73 819.24 617.73
  C 830.77 617.77 844.17 617.06 854.21 618.62
  C 907.25 626.87 931.06 691.36 893.98 731.52
  Q 879.07 747.67 857.32 752.13
  Q 850.64 753.50 838.08 753.50
  Q 605.78 753.49 373.49 753.51
  Q 359.78 753.51 353.56 752.44
  C 303.62 743.91 280.39 685.01 311.22 644.63
  Q 326.27 624.93 350.91 619.37
  C 360.07 617.31 370.78 617.56 380.64 617.80
  A 0.43 0.43 0.0 0 0 381.03 617.18
  Q 365.64 586.21 359.85 552.24
  Q 346.48 473.75 381.15 402.82
  Q 381.44 402.24 380.79 402.24
  C 369.51 402.31 356.25 402.85 346.41 401.37
  C 292.98 393.35 268.98 329.80 305.40 289.14
  Q 320.82 271.93 343.33 267.72
  Q 349.77 266.51 363.25 266.51
  Q 599.12 266.50 835.00 266.50
  Q 843.53 266.50 852.47 268.93
  C 895.43 280.56 915.63 329.93 893.37 368.21
  C 882.52 386.87 864.17 398.58 842.65 401.64
  Q 835.94 402.59 819.33 402.17
  Q 818.62 402.15 818.93 402.79
  Z
  M 405.22 334.26
  A 49.29 49.29 0.0 0 0 355.93 284.97
  A 49.29 49.29 0.0 0 0 306.64 334.26
  A 49.29 49.29 0.0 0 0 355.93 383.55
  A 49.29 49.29 0.0 0 0 405.22 334.26
  Z
  M 819.07 457.82
  C 802.55 386.53 750.25 327.64 683.25 300.92
  Q 651.84 288.39 616.61 285.63
  Q 609.20 285.06 596.62 285.04
  Q 500.16 284.95 403.17 285.02
  A 0.30 0.30 0.0 0 0 402.96 285.53
  C 430.95 312.81 430.63 355.27 403.20 382.87
  A 0.37 0.37 0.0 0 0 403.46 383.50
  Q 497.01 383.53 590.75 383.48
  Q 604.31 383.48 610.73 384.08
  Q 656.85 388.37 689.41 420.70
  C 716.85 447.94 731.01 488.71 725.35 527.20
  C 719.76 565.26 699.29 596.27 666.83 617.23
  Q 666.02 617.75 666.98 617.75
  L 797.00 617.74
  A 1.07 1.03 13.2 0 0 797.94 617.18
  Q 838.34 541.04 819.07 457.82
  Z
  M 836.37 383.37
  Q 857.25 382.17 870.55 368.02
  C 896.84 340.06 882.68 295.35 845.96 286.37
  Q 840.44 285.02 830.41 285.01
  Q 762.74 284.98 695.35 285.01
  Q 693.50 285.01 695.20 285.75
  Q 766.69 316.95 808.16 382.93
  Q 808.42 383.35 808.92 383.37
  Q 828.07 383.85 836.37 383.37
  Z
  M 776.73 694.32
  Q 773.11 666.31 791.45 643.41
  Q 794.08 640.13 796.94 636.92
  Q 797.31 636.51 796.75 636.51
  Q 699.12 636.49 601.50 636.45
  C 581.97 636.44 561.73 632.25 544.19 623.37
  Q 503.45 602.72 484.76 562.45
  C 468.29 526.97 469.71 484.37 488.55 450.13
  Q 504.73 420.75 533.53 402.54
  A 0.15 0.15 0.0 0 0 533.45 402.26
  L 402.80 402.26
  Q 402.42 402.26 402.23 402.60
  Q 372.59 456.77 374.62 516.99
  C 378.46 630.81 466.79 724.73 580.90 734.30
  Q 588.39 734.93 600.88 734.94
  Q 698.58 735.07 796.42 734.98
  A 0.40 0.40 0.0 0 0 796.70 734.30
  C 785.66 723.55 778.71 709.66 776.73 694.32
  Z
  M 707.81 510.06
  A 107.87 107.87 0.0 0 0 599.94 402.19
  A 107.87 107.87 0.0 0 0 492.07 510.06
  A 107.87 107.87 0.0 0 0 599.94 617.93
  A 107.87 107.87 0.0 0 0 707.81 510.06
  Z
  M 505.48 734.94
  A 0.28 0.28 0.0 0 0 505.57 734.39
  Q 498.42 731.84 491.47 728.31
  Q 428.87 696.57 391.87 636.97
  Q 391.60 636.53 391.08 636.53
  Q 380.97 636.44 370.87 636.49
  Q 358.80 636.55 352.76 638.13
  C 328.90 644.40 313.73 666.64 316.15 690.98
  C 318.58 715.42 340.20 734.93 364.49 734.98
  Q 434.82 735.11 505.48 734.94
  Z
  M 893.22 685.75
  A 49.28 49.28 0.0 0 0 843.94 636.47
  A 49.28 49.28 0.0 0 0 794.66 685.75
  A 49.28 49.28 0.0 0 0 843.94 735.03
  A 49.28 49.28 0.0 0 0 893.22 685.75
  Z"
/>
<path fill="#ffffff" d="
  M 294.27 903.97
  L 297.85 909.28
  Q 298.16 909.74 297.69 910.05
  L 291.28 914.32
  Q 290.87 914.59 290.60 914.18
  L 286.77 908.43
  A 0.75 0.75 0.0 0 0 285.94 908.12
  Q 277.98 910.32 271.30 907.20
  C 252.83 898.58 252.70 857.50 271.97 849.70
  C 279.78 846.55 289.23 848.34 294.93 854.80
  C 303.95 865.02 303.58 883.56 299.07 895.60
  C 298.01 898.45 296.25 900.76 294.31 903.13
  Q 293.98 903.54 294.27 903.97
  Z
  M 284.43 889.03
  L 287.43 893.70
  A 0.72 0.71 55.8 0 0 288.45 893.90
  Q 288.78 893.66 288.95 893.22
  Q 293.72 881.16 290.47 868.51
  Q 288.92 862.48 287.51 861.21
  Q 280.63 855.06 274.68 859.35
  C 266.32 865.39 267.12 882.61 269.92 891.11
  C 271.29 895.23 274.98 900.28 279.96 899.43
  Q 280.61 899.32 280.24 898.78
  L 276.96 893.88
  A 0.60 0.60 0.0 0 1 277.13 893.04
  L 283.60 888.85
  Q 284.11 888.52 284.43 889.03
  Z"
/>
<path fill="#ffffff" d="
  M 673.72 887.26
  L 664.44 887.25
  A 0.57 0.56 -0.0 0 1 663.87 886.69
  L 663.90 878.49
  Q 663.90 877.89 664.51 877.89
  L 683.48 877.87
  A 0.85 0.85 0.0 0 1 684.33 878.68
  C 684.58 884.46 684.58 891.06 682.77 896.20
  C 677.76 910.47 659.73 913.24 649.61 902.60
  C 635.06 887.30 640.18 845.35 667.51 848.44
  C 674.54 849.23 679.48 853.50 682.59 859.60
  Q 682.83 860.08 682.37 860.34
  L 674.49 864.80
  Q 674.02 865.06 673.78 864.59
  C 672.12 861.33 669.70 858.29 665.89 857.77
  Q 660.40 857.04 656.70 861.70
  C 650.58 869.41 651.14 883.25 654.54 891.93
  C 659.16 903.69 674.74 901.70 674.11 887.64
  Q 674.10 887.26 673.72 887.26
  Z"
/>
<path fill="#ffffff" d="
  M 926.88 898.39
  C 928.65 894.75 925.22 892.88 922.33 891.78
  C 916.93 889.72 911.66 888.07 907.88 884.91
  C 900.28 878.57 902.83 868.52 911.89 865.52
  Q 925.45 861.04 935.63 870.30
  Q 936.11 870.73 935.61 871.15
  L 929.93 875.95
  Q 929.49 876.32 929.04 875.96
  Q 922.32 870.46 914.49 873.41
  Q 912.84 874.03 912.86 875.75
  C 912.95 883.02 937.02 881.05 936.71 896.76
  Q 936.55 904.61 928.67 907.30
  Q 913.92 912.33 902.99 901.91
  A 0.62 0.62 0.0 0 1 903.01 901.00
  L 908.69 895.93
  Q 909.07 895.60 909.43 895.95
  Q 915.00 901.39 922.98 900.39
  Q 926.09 900.00 926.88 898.39
  Z"
/>
<path fill="#ffffff" d="
  M 398.28 890.75
  C 399.44 901.08 411.21 903.33 417.93 896.64
  Q 418.29 896.27 418.65 896.64
  L 423.66 901.84
  Q 424.10 902.29 423.65 902.73
  C 411.31 915.07 391.40 908.73 388.62 891.51
  C 386.57 878.80 392.27 865.36 406.48 864.24
  C 422.83 862.94 429.25 875.50 426.95 889.84
  Q 426.88 890.26 426.46 890.26
  L 398.73 890.25
  Q 398.23 890.25 398.28 890.75
  Z
  M 398.42 882.03
  L 417.80 881.97
  A 0.16 0.16 0.0 0 0 417.96 881.81
  L 417.96 881.71
  A 9.62 9.20 -0.2 0 0 408.30 872.54
  L 407.84 872.54
  A 9.62 9.20 -0.2 0 0 398.26 881.77
  L 398.26 881.87
  A 0.16 0.16 0.0 0 0 398.42 882.03
  Z"
/>
<path fill="#ffffff" d="
  M 468.64 871.16
  C 470.25 869.32 471.88 867.30 474.09 866.24
  Q 483.08 861.95 492.56 866.13
  Q 493.12 866.38 493.12 866.99
  L 493.12 881.54
  A 0.66 0.66 0.0 0 1 492.46 882.20
  L 484.24 882.23
  Q 483.75 882.23 483.75 881.74
  L 483.74 873.72
  Q 483.74 873.22 483.24 873.17
  C 466.09 871.74 469.08 888.04 468.99 898.99
  Q 468.98 899.51 469.50 899.51
  L 480.50 899.50
  Q 481.00 899.50 481.00 900.00
  L 481.00 907.50
  Q 481.00 908.00 480.50 908.00
  L 450.92 908.00
  Q 450.34 908.00 450.34 907.42
  L 450.36 900.20
  Q 450.36 899.51 451.05 899.51
  L 458.80 899.50
  Q 459.36 899.50 459.36 898.95
  L 459.35 874.05
  Q 459.35 873.49 458.80 873.50
  L 450.82 873.54
  Q 450.34 873.54 450.35 873.07
  L 450.36 865.61
  Q 450.36 865.07 450.89 865.07
  L 467.80 865.08
  Q 468.27 865.08 468.26 865.55
  L 468.23 871.01
  Q 468.23 871.62 468.64 871.16
  Z"
/>
<path fill="#ffffff" d="
  M 736.30 882.28
  Q 737.27 877.98 734.98 875.17
  C 730.58 869.79 719.54 873.47 714.89 876.67
  Q 714.45 876.98 714.26 876.47
  L 711.71 869.53
  Q 711.55 869.07 711.96 868.82
  Q 723.48 861.96 736.26 865.08
  C 743.81 866.92 745.76 873.44 745.86 880.50
  Q 746.05 893.99 746.00 907.48
  Q 746.00 908.00 745.48 908.00
  L 736.97 908.00
  Q 736.45 908.00 736.48 907.47
  L 736.60 905.52
  A 0.39 0.38 -16.1 0 0 735.99 905.19
  Q 725.72 912.38 715.11 906.65
  Q 709.10 903.40 708.81 895.74
  C 708.26 880.96 724.82 878.09 735.80 882.54
  Q 736.20 882.71 736.30 882.28
  Z
  M 735.95 890.42
  C 731.81 888.63 720.73 886.98 718.43 892.91
  C 716.69 897.42 720.64 900.20 724.80 900.44
  Q 731.67 900.84 736.14 896.64
  Q 736.49 896.32 736.49 895.84
  L 736.51 891.28
  Q 736.52 890.66 735.95 890.42
  Z"
/>
<path fill="#ffffff" d="
  M 779.04 868.24
  L 781.23 865.72
  Q 781.57 865.34 782.03 865.15
  Q 790.21 861.72 793.74 869.75
  A 0.48 0.47 47.5 0 0 794.59 869.79
  C 796.50 866.33 799.74 864.18 803.75 864.11
  C 812.73 863.96 813.96 872.67 813.99 880.10
  Q 814.03 893.79 813.99 907.49
  Q 813.98 908.00 813.48 908.00
  L 805.77 908.00
  Q 805.26 908.00 805.26 907.49
  Q 805.30 894.86 805.25 882.25
  C 805.24 879.43 805.44 875.00 802.67 873.55
  Q 800.34 872.33 798.28 874.81
  Q 796.58 876.84 796.57 880.50
  Q 796.51 893.99 796.48 907.49
  Q 796.47 908.00 795.97 908.00
  L 788.27 908.00
  Q 787.77 908.00 787.77 907.50
  Q 787.72 894.23 787.67 881.00
  C 787.62 869.51 778.47 871.93 778.49 881.50
  Q 778.51 894.49 778.49 907.49
  Q 778.49 908.00 777.98 908.00
  L 770.25 908.00
  Q 769.74 908.00 769.74 907.50
  L 769.74 865.53
  Q 769.74 865.05 770.22 865.05
  L 778.05 865.09
  Q 778.51 865.09 778.50 865.55
  L 778.48 868.02
  Q 778.47 868.90 779.04 868.24
  Z"
/>
<path fill="#ffffff" d="
  M 846.28 890.75
  C 847.44 901.08 859.21 903.33 865.93 896.64
  Q 866.29 896.27 866.65 896.64
  L 871.66 901.84
  Q 872.10 902.29 871.65 902.73
  C 859.31 915.08 839.41 908.73 836.62 891.51
  C 834.57 878.79 840.27 865.36 854.48 864.24
  C 870.83 862.94 877.25 875.50 874.95 889.84
  Q 874.88 890.26 874.46 890.26
  L 846.73 890.25
  Q 846.23 890.25 846.28 890.75
  Z
  M 846.42 882.03
  L 865.80 881.97
  A 0.16 0.16 0.0 0 0 865.96 881.81
  L 865.96 881.71
  A 9.62 9.20 -0.2 0 0 856.30 872.54
  L 855.84 872.54
  A 9.62 9.20 -0.2 0 0 846.26 881.77
  L 846.26 881.87
  A 0.16 0.16 0.0 0 0 846.42 882.03
  Z"
/>
<path fill="#ffffff" d="
  M 352.60 904.59
  Q 344.96 910.80 336.06 908.36
  C 329.88 906.67 325.83 901.79 325.31 895.49
  Q 324.53 886.03 325.18 865.55
  Q 325.19 865.03 325.71 865.03
  L 334.09 865.09
  Q 334.66 865.09 334.65 865.66
  Q 334.60 875.69 334.66 885.65
  Q 334.70 892.79 335.73 895.19
  C 338.30 901.22 349.31 901.41 352.09 895.01
  Q 352.93 893.08 352.96 888.11
  Q 353.04 876.82 353.00 865.56
  A 0.52 0.51 -0.5 0 1 353.52 865.04
  L 362.14 865.13
  Q 362.64 865.13 362.64 865.64
  L 362.64 907.55
  Q 362.64 908.00 362.20 908.00
  L 353.50 908.00
  Q 353.00 908.00 353.00 907.50
  L 353.00 904.78
  Q 353.00 904.26 352.60 904.59
  Z"
/>
<path fill="#ffffff" d="
  M 535.47 893.93
  Q 535.81 894.85 536.16 893.93
  L 546.79 865.57
  Q 546.97 865.10 547.49 865.09
  L 556.31 865.06
  Q 556.83 865.06 556.65 865.55
  L 534.51 923.84
  Q 534.35 924.26 533.91 924.26
  L 525.00 924.25
  Q 524.41 924.25 524.62 923.69
  L 530.58 908.22
  A 2.76 2.76 0.0 0 0 530.58 906.24
  L 515.10 865.64
  A 0.44 0.43 80.2 0 1 515.51 865.05
  L 524.26 865.12
  Q 524.71 865.12 524.86 865.54
  L 535.47 893.93
  Z"
/>
</svg>
